<?xml version="1.0" encoding="UTF-8"?>
<!DOCTYPE svg PUBLIC "-//W3C//DTD SVG 1.1//EN" "http://www.w3.org/Graphics/SVG/1.1/DTD/svg11.dtd">
<svg xmlns="http://www.w3.org/2000/svg" version="1.1" width="800px" height="800px" style="shape-rendering:geometricPrecision; text-rendering:geometricPrecision; image-rendering:optimizeQuality; fill-rule:evenodd; clip-rule:evenodd" xmlns:xlink="http://www.w3.org/1999/xlink">
<g><path style="opacity:0.999" fill="#d41935" d="M 371.5,11.5 C 490.375,7.15781 591.208,47.1578 674,131.5C 762.651,230.734 794.318,346.067 769,477.5C 739.512,598.635 669.012,686.802 557.5,742C 471.484,780.72 382.817,788.053 291.5,764C 181.482,731.305 100.649,663.805 49,561.5C 4.54111,464.195 -0.458894,364.862 34,263.5C 76.5,153 153,76.5 263.5,34C 298.639,21.6733 334.639,14.1733 371.5,11.5 Z"/></g>
<g><path style="opacity:1" fill="#fefefe" d="M 363.5,112.5 C 410.264,110.568 456.597,114.068 502.5,123C 530.741,129.123 556.074,141.123 578.5,159C 602.701,182.249 614.701,210.749 614.5,244.5C 613.524,283.736 604.69,321.07 588,356.5C 575.255,380.992 562.255,405.325 549,429.5C 537.535,450.425 528.869,472.425 523,495.5C 518.425,523.775 527.258,546.941 549.5,565C 559.417,573.562 570.75,579.562 583.5,583C 611.066,584.259 636.9,578.092 661,564.5C 647.504,588.674 629.004,608.508 605.5,624C 566.269,645.827 526.269,647.16 485.5,628C 446.514,608.659 423.014,577.493 415,534.5C 414.333,526.167 414.333,517.833 415,509.5C 417.458,500.456 420.125,491.456 423,482.5C 442.048,434.358 459.715,385.691 476,336.5C 485.256,307.704 490.423,278.204 491.5,248C 492.89,195.72 467.556,166.72 415.5,161C 385.224,156.38 356.558,161.046 329.5,175C 312.935,186.609 302.768,202.442 299,222.5C 296.123,248.056 297.456,273.389 303,298.5C 309.239,324.888 316.906,350.888 326,376.5C 339.333,411.833 352.667,447.167 366,482.5C 382.758,534.9 369.925,578.734 327.5,614C 260.501,657.378 200.001,649.878 146,591.5C 139.251,583.25 133.084,574.584 127.5,565.5C 136.853,569.142 146.52,572.975 156.5,577C 176.656,584.727 196.989,585.393 217.5,579C 264.019,555.453 277.853,519.286 259,470.5C 252.82,455.139 245.82,440.139 238,425.5C 221.088,396.344 205.755,366.344 192,335.5C 145.692,202.613 192.525,129.113 332.5,115C 343.005,114.376 353.338,113.542 363.5,112.5 Z"/></g>
</svg>
